<svg width="96" height="97" viewBox="0 0 96 97" fill="none" xmlns="http://www.w3.org/2000/svg">
<circle cx="14.5" cy="54.5" r="14.5" fill="white"/>
<circle cx="47.855" cy="62.855" r="12.1291" transform="rotate(-15 47.855 62.855)" fill="white"/>
<path d="M54.0814 55.6354C54.0814 55.6354 54.0927 55.6563 54.0946 55.6679C54.1036 55.681 54.1096 55.69 54.1148 55.7024C54.1043 55.6777 54.0964 55.6571 54.0814 55.6354ZM53.8022 55.1012C53.8393 55.1689 53.8802 55.2374 53.9165 55.3084C53.8967 55.2707 53.8772 55.2329 53.8573 55.1951C53.8401 55.1652 53.8232 55.1319 53.8022 55.1012ZM88.8469 44.6792C87.5121 43.1271 86.0282 41.7452 84.4325 40.5336L84.4287 40.5328C84.4287 40.5328 84.4254 40.5321 84.4224 40.528C83.2311 39.6257 81.9807 38.8191 80.6796 38.1215C80.6766 38.117 80.6692 38.1155 80.6654 38.1151C76.0804 35.6267 70.913 34.4016 65.816 34.5808C66.9634 25.7696 64.4167 16.3444 58.5588 9.5546C48.1962 -2.46591 30.9164 -3.26111 19.1949 7.83205C15.2378 11.5815 12.3505 16.1653 10.2424 21.614C9.14001 24.4664 8.24566 27.5547 7.52411 30.8874C6.72871 34.5793 6.13385 38.5704 5.69342 42.863C5.87184 42.7628 6.05401 42.6629 6.23993 42.5637C6.3996 42.4826 6.55854 42.4051 6.71671 42.3314C6.83854 42.2701 6.96261 42.2166 7.08668 42.1631C7.15752 42.1305 7.22386 42.1006 7.29396 42.0718C7.41765 42.0221 7.54172 41.9686 7.66804 41.9233C7.7625 41.8874 7.85284 41.8507 7.94654 41.8182C8.04887 41.78 8.15458 41.7422 8.2599 41.7082C8.34911 41.679 8.44282 41.6465 8.53128 41.621C8.60025 41.5993 8.6726 41.5784 8.74194 41.553C8.85027 41.5234 8.95934 41.4897 9.06692 41.4639C9.14301 41.4437 9.21611 41.419 9.29482 41.4067C9.66291 41.3105 10.0396 41.2309 10.4171 41.1669C12.003 40.8934 13.6665 40.8818 15.351 41.1706C15.6801 41.2268 16.007 41.2941 16.3271 41.3756C12.304 41.0169 8.25578 44.8068 6.38686 50.4248C7.13878 50.4177 7.9383 50.4839 8.75319 50.6328C12.6211 51.3394 15.4413 53.6419 15.05 55.7761C14.6587 57.9106 11.2038 59.0665 7.33594 58.3602C6.63537 58.2323 5.9708 58.0535 5.3527 57.8305C5.59971 62.9641 7.93192 67.0981 11.4329 68.0797C11.1949 68.0479 10.9568 68.0157 10.7166 67.9757C8.51816 67.6005 6.52068 66.7528 4.82268 65.5603C4.71473 65.4836 4.60318 65.4061 4.49601 65.3257C4.37085 70.7447 4.31133 76.4918 4.24873 82.5879L4.19577 87.0735L4.125 92.9856L14.0087 93.9051C49.0489 97.2412 72.2069 99.4183 86.4982 85.8854C98.2159 74.7916 99.2103 56.6959 88.8469 44.6792ZM54.9567 63.6408C54.9923 63.4459 55.0238 63.2536 55.0515 63.061C55.0792 62.8683 55.1032 62.6749 55.1227 62.4845C55.1658 62.1045 55.1898 61.7248 55.2015 61.3507C55.2075 61.1921 55.2101 61.0327 55.2082 60.8763C55.2101 60.8464 55.2086 60.812 55.2067 60.7809C55.2101 60.6597 55.2045 60.5449 55.1996 60.4259C55.1992 60.3234 55.1947 60.2236 55.1865 60.1233C55.1771 59.9654 55.1688 59.8042 55.152 59.6452C55.0538 58.5398 54.8251 57.5017 54.4788 56.5635C54.4589 56.5066 54.4353 56.449 54.4113 56.3914C54.4106 56.3761 54.4019 56.3593 54.3967 56.3469C54.3738 56.2859 54.3498 56.2283 54.3262 56.1707C54.2741 56.0394 54.2175 55.9111 54.156 55.7895C54.1459 55.7611 54.1324 55.7319 54.1148 55.7024C54.1043 55.6777 54.0964 55.6571 54.0814 55.6354C54.0792 55.6272 54.0736 55.6148 54.0683 55.6025C54.0601 55.5856 54.0515 55.5692 54.0402 55.5479C54.0372 55.5437 54.035 55.5355 54.032 55.531C53.996 55.4562 53.9566 55.3806 53.9165 55.3084C53.8967 55.2707 53.8772 55.2329 53.8573 55.1951C53.8401 55.1652 53.8232 55.1319 53.8022 55.1012C53.5934 54.7436 53.3689 54.4099 53.1234 54.1065C53.0432 54.0044 52.9614 53.9094 52.879 53.8185C52.629 53.5409 52.3628 53.2869 52.0791 53.0677C51.9891 52.9981 51.8984 52.9319 51.8077 52.866C51.726 52.8129 51.6477 52.7605 51.5656 52.7112C51.518 52.6797 51.4659 52.6513 51.4141 52.6229C51.4145 52.6191 51.4074 52.6177 51.4006 52.6128C51.3279 52.5728 51.2552 52.5331 51.1817 52.4968C50.868 52.3367 50.5366 52.2114 50.1948 52.1224C50.3335 52.1362 50.474 52.1583 50.6105 52.1833C56.5486 53.1956 60.5593 58.6479 59.5728 64.3587C58.5866 70.0695 52.9731 73.8736 47.0394 72.8583C46.8138 72.8209 46.5934 72.7767 46.3741 72.7251C50.1431 73.159 53.9409 69.1788 54.9567 63.6408ZM38.0772 60.6826C38.9198 55.7978 43.1502 52.3034 48.077 52.0359C47.8562 52.0756 47.6373 52.1269 47.4192 52.1934C47.3431 52.2136 47.2617 52.2409 47.1845 52.2686C47.0417 52.3184 46.8985 52.3723 46.7534 52.437C46.6789 52.4691 46.6039 52.5047 46.5285 52.5402C46.3617 52.6203 46.1931 52.7074 46.03 52.8069C45.9753 52.835 45.9239 52.8672 45.8715 52.9035C45.7868 52.9487 45.7039 53.006 45.6211 53.0628C45.4865 53.1526 45.3508 53.2495 45.2215 53.3512C45.1548 53.4036 45.0881 53.456 45.0247 53.5091C44.958 53.5618 44.8943 53.6183 44.8313 53.6714C44.7035 53.7852 44.5753 53.9026 44.4508 54.0205C44.079 54.386 43.7267 54.7896 43.3901 55.2336C43.2791 55.381 43.1708 55.5359 43.0658 55.6919C42.9605 55.8512 42.8586 56.0114 42.7562 56.1752C42.658 56.3361 42.5673 56.4984 42.4725 56.6634C42.3919 56.8123 42.3105 56.9645 42.233 57.1179C42.2022 57.1807 42.1715 57.2436 42.1411 57.3064C42.092 57.4078 42.0429 57.5092 41.9968 57.6147C41.8491 57.9416 41.7108 58.2813 41.5856 58.6311C41.5541 58.7205 41.5219 58.8133 41.4893 58.9064C41.4166 59.1174 41.3502 59.3336 41.2876 59.5502C41.2456 59.6946 41.2078 59.8397 41.1688 59.9886C41.1369 60.1009 41.1122 60.2142 41.0841 60.3268L41.0788 60.3564C41.8128 60.2393 42.6606 60.2497 43.5419 60.4106C45.9862 60.8573 47.77 62.29 47.5275 63.6109C47.2853 64.9318 45.1091 65.6411 42.6644 65.1944C41.938 65.0616 41.2734 64.8413 40.6991 64.5656C40.8101 66.7038 41.4113 68.6394 42.3799 70.09C42.5171 70.2977 42.6636 70.4956 42.8166 70.6796C42.9946 70.8947 43.1757 71.0911 43.3706 71.2752C43.4159 71.3178 43.4579 71.3597 43.504 71.3982C43.8013 71.6694 44.1247 71.8999 44.4625 72.0944C39.9918 70.1671 37.2394 65.5191 38.0772 60.6826ZM24.6356 46.936C25.2759 47.8286 25.8074 48.7967 26.2152 49.8143C26.3512 50.1509 26.4746 50.497 26.5818 50.8475C26.6335 51.024 26.6849 51.2006 26.7325 51.3768C26.8273 51.7326 26.9023 52.0924 26.9694 52.4546C27.2209 53.9075 27.2317 55.427 26.9701 56.9574C25.9003 63.1433 20.6433 67.6024 14.4525 68.1332C18.4134 67.2104 22.0482 62.5388 23.17 56.4229C23.3455 55.4663 23.4504 54.5195 23.4905 53.5951C23.4958 53.4627 23.5018 53.3269 23.5033 53.1941C23.5096 52.9293 23.5078 52.6704 23.5055 52.4112L23.507 52.404C23.5025 52.076 23.4853 51.7535 23.4632 51.4374C23.4418 51.1179 23.4118 50.8045 23.3736 50.4932C23.3473 50.283 23.3173 50.0724 23.2832 49.8644C23.251 49.6646 23.215 49.4679 23.1779 49.2748C23.1768 49.2595 23.1753 49.2475 23.17 49.2352C22.92 48.022 22.5508 46.8975 22.0699 45.9043C22.0122 45.7835 21.9503 45.6619 21.8881 45.5441C21.8881 45.5441 21.8885 45.5429 21.8889 45.5403C21.7948 45.3675 21.6973 45.1936 21.5984 45.0271C21.4953 44.8602 21.3952 44.7009 21.2873 44.5408C21.2149 44.436 21.1426 44.3317 21.0698 44.231L21.0661 44.2303C20.9465 44.0717 20.8228 43.9157 20.698 43.7638C20.5694 43.6145 20.439 43.4731 20.3044 43.3344C19.9292 42.9502 19.5289 42.6184 19.0993 42.3423C21.3562 43.3972 23.2499 44.9979 24.6356 46.936ZM53.8573 55.1951C53.8401 55.1652 53.8232 55.1319 53.8022 55.1012C53.8393 55.1689 53.8802 55.2374 53.9165 55.3084C53.8967 55.2707 53.8772 55.2329 53.8573 55.1951ZM54.0814 55.6354C54.0814 55.6354 54.0927 55.6563 54.0946 55.6679C54.1036 55.681 54.1096 55.69 54.1148 55.7024C54.1043 55.6777 54.0964 55.6571 54.0814 55.6354Z" fill="#3739FF"/>
</svg>
